<svg xmlns="http://www.w3.org/2000/svg" xmlns:xlink="http://www.w3.org/1999/xlink" width="500" zoomAndPan="magnify" viewBox="0 0 375 374.999991" height="500" preserveAspectRatio="xMidYMid meet" version="1.0"><defs><clipPath id="39101a478b"><path d="M 45 102 L 83 102 L 83 161 L 45 161 Z M 45 102 " clip-rule="nonzero"/></clipPath><clipPath id="0ba99a2f47"><path d="M 81.207031 160.957031 L 44.480469 159.660156 L 46.519531 101.945312 L 83.25 103.246094 Z M 81.207031 160.957031 " clip-rule="nonzero"/></clipPath><clipPath id="97cf631b4e"><path d="M 81.207031 160.957031 L 44.480469 159.660156 L 46.519531 101.945312 L 83.25 103.246094 Z M 81.207031 160.957031 " clip-rule="nonzero"/></clipPath><clipPath id="6a25f99727"><path d="M 69 109 L 78 109 L 78 129 L 69 129 Z M 69 109 " clip-rule="nonzero"/></clipPath><clipPath id="44c32fd53b"><path d="M 81.207031 160.957031 L 44.480469 159.660156 L 46.519531 101.945312 L 83.25 103.246094 Z M 81.207031 160.957031 " clip-rule="nonzero"/></clipPath><clipPath id="20b7e53b18"><path d="M 81.207031 160.957031 L 44.480469 159.660156 L 46.519531 101.945312 L 83.25 103.246094 Z M 81.207031 160.957031 " clip-rule="nonzero"/></clipPath><clipPath id="44a4434c76"><path d="M 52.492188 110.253906 L 74.992188 110.253906 L 74.992188 132.753906 L 52.492188 132.753906 Z M 52.492188 110.253906 " clip-rule="nonzero"/></clipPath><clipPath id="1f83b0cd95"><path d="M 15.910156 131.277344 L 111.910156 131.277344 L 111.910156 213.777344 L 15.910156 213.777344 Z M 15.910156 131.277344 " clip-rule="nonzero"/></clipPath><clipPath id="5eb587056b"><path d="M 176.171875 131.277344 L 243.671875 131.277344 L 243.671875 219 L 176.171875 219 Z M 176.171875 131.277344 " clip-rule="nonzero"/></clipPath><clipPath id="ed678d0804"><path d="M 102.515625 131.277344 L 177.515625 131.277344 L 177.515625 214.527344 L 102.515625 214.527344 Z M 102.515625 131.277344 " clip-rule="nonzero"/></clipPath><clipPath id="406d23574d"><path d="M 285.433594 131.277344 L 359.683594 131.277344 L 359.683594 213.777344 L 285.433594 213.777344 Z M 285.433594 131.277344 " clip-rule="nonzero"/></clipPath><clipPath id="fd1222dd12"><path d="M 235.785156 136.605469 L 292.785156 136.605469 L 292.785156 219 L 235.785156 219 Z M 235.785156 136.605469 " clip-rule="nonzero"/></clipPath></defs><g clip-path="url(#39101a478b)"><g clip-path="url(#0ba99a2f47)"><g clip-path="url(#97cf631b4e)"><path fill="#c92a2a" d="M 64.878906 103.179688 C 74.144531 103.507812 81.964844 112.507812 81.613281 122.441406 C 81.378906 129.113281 74.46875 139.71875 71.871094 143.714844 C 71.546875 144.210938 71.285156 144.613281 71.105469 144.898438 C 67.429688 150.78125 64.09375 156.378906 62.929688 158.347656 C 61.90625 156.300781 58.972656 150.484375 55.722656 144.351562 C 55.5625 144.054688 55.332031 143.636719 55.042969 143.117188 C 52.730469 138.949219 46.589844 127.878906 46.824219 121.210938 C 47.175781 111.277344 55.613281 102.851562 64.878906 103.179688 Z M 54.222656 143.574219 C 54.503906 144.085938 54.734375 144.5 54.890625 144.792969 C 58.910156 152.371094 62.4375 159.46875 62.472656 159.539062 L 62.859375 160.316406 L 63.300781 159.566406 C 63.339844 159.5 67.359375 152.667969 71.902344 145.394531 C 72.078125 145.113281 72.335938 144.71875 72.65625 144.226562 C 75.296875 140.171875 82.308594 129.40625 82.554688 122.472656 C 82.921875 112.039062 74.679688 102.585938 64.914062 102.238281 C 55.148438 101.894531 46.253906 110.742188 45.886719 121.175781 C 45.640625 128.109375 51.875 139.34375 54.222656 143.574219 " fill-opacity="1" fill-rule="nonzero"/></g></g></g><g clip-path="url(#6a25f99727)"><g clip-path="url(#44c32fd53b)"><g clip-path="url(#20b7e53b18)"><path fill="#c92a2a" d="M 70.292969 110.886719 C 72.84375 111.707031 74.855469 113.707031 75.953125 116.515625 C 77.378906 120.171875 77.105469 124.648438 75.257812 127.921875 C 75.128906 128.148438 75.210938 128.433594 75.4375 128.5625 C 75.660156 128.691406 75.949219 128.609375 76.078125 128.382812 C 78.058594 124.875 78.355469 120.082031 76.828125 116.175781 C 75.625 113.097656 73.40625 110.902344 70.578125 109.992188 C 70.539062 109.976562 70.496094 109.96875 70.453125 109.96875 C 70.246094 109.960938 70.054688 110.089844 69.988281 110.292969 C 69.910156 110.542969 70.046875 110.804688 70.292969 110.886719 " fill-opacity="1" fill-rule="nonzero"/></g></g></g><g clip-path="url(#44a4434c76)"><path fill="#c92a2a" d="M 75.234375 121.597656 C 75.234375 124.734375 74.117188 127.414062 71.882812 129.632812 C 69.652344 131.839844 66.972656 132.941406 63.851562 132.941406 C 60.714844 132.941406 58.050781 131.839844 55.855469 129.632812 C 53.617188 127.414062 52.5 124.734375 52.5 121.597656 C 52.5 118.5 53.617188 115.835938 55.855469 113.605469 C 58.074219 111.371094 60.738281 110.253906 63.851562 110.253906 C 66.972656 110.253906 69.652344 111.371094 71.882812 113.605469 C 74.117188 115.8125 75.234375 118.476562 75.234375 121.597656 M 70.195312 115.261719 C 68.449219 113.484375 66.335938 112.597656 63.851562 112.597656 C 61.386719 112.597656 59.28125 113.484375 57.53125 115.261719 C 55.769531 117 54.886719 119.113281 54.886719 121.597656 C 54.886719 124.089844 55.769531 126.203125 57.53125 127.941406 C 59.28125 129.714844 61.386719 130.601562 63.851562 130.601562 C 66.335938 130.601562 68.449219 129.714844 70.195312 127.941406 C 71.957031 126.203125 72.839844 124.089844 72.839844 121.597656 C 72.839844 119.113281 71.957031 117 70.195312 115.261719 " fill-opacity="1" fill-rule="nonzero"/></g><g clip-path="url(#1f83b0cd95)"><path fill="#c92a2a" d="M 23.5 131.277344 L 35.703125 152.335938 L 41.796875 162.703125 L 47.890625 173.316406 L 60.191406 194.316406 L 66.207031 204.757812 L 67.625 207.09375 L 63.867188 213.53125 L 62.449219 211.195312 L 50.246094 190.214844 L 38.039062 169.160156 L 15.96875 131.277344 Z M 100.484375 137.792969 L 90.863281 137.792969 L 72.644531 169.140625 L 68.886719 162.703125 L 87.1875 131.277344 L 111.769531 131.277344 L 72.394531 198.914062 L 33.019531 131.277344 L 40.550781 131.277344 L 72.394531 186.039062 Z M 100.484375 137.792969 " fill-opacity="1" fill-rule="nonzero"/></g><g clip-path="url(#5eb587056b)"><path fill="#c92a2a" d="M 243.296875 200.597656 L 176.230469 141.785156 L 176.230469 131.316406 L 235.425781 183.222656 L 235.425781 135.457031 L 243.296875 135.457031 Z M 176.171875 149.4375 L 176.171875 214.578125 L 184.042969 214.578125 L 184.042969 166.808594 L 243.339844 218.808594 L 243.339844 208.335938 Z M 176.171875 149.4375 " fill-opacity="1" fill-rule="nonzero"/></g><g clip-path="url(#ed678d0804)"><path fill="#c92a2a" d="M 126.5 176.378906 L 158.554688 176.378906 L 158.554688 168.886719 L 119.007812 168.886719 L 119.007812 197.863281 L 170.007812 197.863281 L 170.007812 206.8125 L 110.019531 206.8125 L 110.019531 147.722656 L 102.527344 147.722656 L 102.527344 214.304688 L 177.5 214.304688 L 177.5 190.371094 L 126.5 190.371094 Z M 102.527344 131.277344 L 102.527344 138.785156 L 170.007812 138.769531 L 170.007812 147.722656 L 119.035156 147.722656 L 119.035156 155.214844 L 177.5 155.214844 L 177.5 131.277344 Z M 102.527344 131.277344 " fill-opacity="1" fill-rule="nonzero"/></g><g clip-path="url(#406d23574d)"><path fill="#c92a2a" d="M 309.195312 175.957031 L 340.953125 175.957031 L 340.953125 168.535156 L 301.773438 168.535156 L 301.773438 197.242188 L 352.296875 197.242188 L 352.296875 206.109375 L 292.867188 206.109375 L 292.867188 147.566406 L 285.445312 147.566406 L 285.445312 213.53125 L 359.71875 213.53125 L 359.71875 189.820312 L 309.195312 189.820312 Z M 285.445312 131.277344 L 285.445312 138.714844 L 352.296875 138.703125 L 352.296875 147.566406 L 301.800781 147.566406 L 301.800781 154.992188 L 359.71875 154.992188 L 359.71875 131.277344 Z M 285.445312 131.277344 " fill-opacity="1" fill-rule="nonzero"/></g><g clip-path="url(#fd1222dd12)"><path fill="#c92a2a" d="M 269.222656 200.210938 C 273.273438 199.519531 276.390625 195.972656 276.390625 191.734375 L 276.390625 136.699219 C 272.339844 137.390625 269.222656 140.9375 269.222656 145.175781 Z M 235.785156 157.085938 C 239.835938 157.777344 242.953125 161.324219 242.953125 165.558594 L 242.953125 190.183594 C 242.953125 195.878906 245.230469 201.292969 249.246094 205.304688 C 253.257812 209.320312 258.671875 211.597656 264.367188 211.597656 C 270.0625 211.597656 275.476562 209.320312 279.488281 205.304688 C 283.503906 201.292969 285.78125 195.878906 285.78125 190.183594 L 285.78125 165.558594 C 285.78125 161.324219 288.898438 157.777344 292.949219 157.085938 L 292.949219 190.183594 C 292.949219 197.78125 289.925781 205.007812 284.546875 210.367188 C 279.171875 215.742188 271.964844 218.765625 264.347656 218.765625 C 256.75 218.765625 249.523438 215.742188 244.148438 210.367188 C 238.808594 205.007812 235.785156 197.800781 235.785156 190.203125 Z M 259.511719 200.210938 L 259.511719 145.175781 C 259.511719 140.9375 256.394531 137.390625 252.34375 136.699219 L 252.34375 191.714844 C 252.34375 195.972656 255.460938 199.519531 259.511719 200.210938 Z M 259.511719 200.210938 " fill-opacity="1" fill-rule="evenodd"/></g></svg>